<mxfile host="app.diagrams.net" modified="2022-04-17T08:18:41.410Z" agent="5.0 (Windows NT 10.0; Win64; x64) AppleWebKit/537.36 (KHTML, like Gecko) Chrome/100.0.4896.88 Safari/537.36" etag="o1V4F3BrgRrohWm7ttzW" version="17.4.5" type="github">
  <diagram id="kgpKYQtTHZ0yAKxKKP6v" name="Page-1">
    <mxGraphModel dx="865" dy="456" grid="1" gridSize="10" guides="1" tooltips="1" connect="1" arrows="1" fold="1" page="1" pageScale="1" pageWidth="850" pageHeight="1100" math="0" shadow="0">
      <root>
        <mxCell id="0" />
        <mxCell id="1" parent="0" />
        <mxCell id="I8XLSuPqneHavk6bBn1r-1" value="State&lt;br&gt;&amp;nbsp;&lt;br&gt;pickListGR: null&lt;br&gt;pickListR: null&lt;br&gt;prevFarmId : null" style="rounded=0;whiteSpace=wrap;html=1;" vertex="1" parent="1">
          <mxGeometry x="30" y="110" width="130" height="110" as="geometry" />
        </mxCell>
        <mxCell id="I8XLSuPqneHavk6bBn1r-2" value="" style="shape=flexArrow;endArrow=classic;html=1;rounded=0;exitX=1;exitY=0.5;exitDx=0;exitDy=0;endSize=8;startSize=15;targetPerimeterSpacing=4;strokeWidth=1;fontSize=8;" edge="1" parent="1" source="I8XLSuPqneHavk6bBn1r-1">
          <mxGeometry width="50" height="50" relative="1" as="geometry">
            <mxPoint x="400" y="270" as="sourcePoint" />
            <mxPoint x="310" y="165" as="targetPoint" />
            <Array as="points" />
          </mxGeometry>
        </mxCell>
        <mxCell id="I8XLSuPqneHavk6bBn1r-3" value="&lt;p style=&quot;line-height: 0&quot;&gt;&lt;font style=&quot;font-size: 9px&quot;&gt;termoThunk.getPicksR&lt;/font&gt;&lt;/p&gt;&lt;p style=&quot;line-height: 0&quot;&gt;&lt;font style=&quot;font-size: 9px&quot;&gt;termoAction.setPrevFarmId&lt;/font&gt;&lt;/p&gt;&lt;p style=&quot;line-height: 0&quot;&gt;&lt;font style=&quot;font-size: 9px&quot;&gt;termoAction.setPicksListR&lt;/font&gt;&lt;/p&gt;" style="edgeLabel;html=1;align=center;verticalAlign=middle;resizable=0;points=[];" vertex="1" connectable="0" parent="I8XLSuPqneHavk6bBn1r-2">
          <mxGeometry x="-0.2336" y="1" relative="1" as="geometry">
            <mxPoint as="offset" />
          </mxGeometry>
        </mxCell>
        <mxCell id="I8XLSuPqneHavk6bBn1r-4" value="State&lt;br&gt;&amp;nbsp;&lt;br&gt;pickListGR: null&lt;br&gt;pickListR: [16-Items]&lt;br&gt;prevFarmId : [6]" style="rounded=0;whiteSpace=wrap;html=1;" vertex="1" parent="1">
          <mxGeometry x="310" y="110" width="130" height="110" as="geometry" />
        </mxCell>
        <mxCell id="I8XLSuPqneHavk6bBn1r-5" value="" style="shape=flexArrow;endArrow=classic;html=1;rounded=0;exitX=1;exitY=0.5;exitDx=0;exitDy=0;endSize=8;startSize=15;targetPerimeterSpacing=4;strokeWidth=1;fontSize=8;" edge="1" parent="1">
          <mxGeometry width="50" height="50" relative="1" as="geometry">
            <mxPoint x="440" y="164.71" as="sourcePoint" />
            <mxPoint x="590" y="164.71" as="targetPoint" />
            <Array as="points" />
          </mxGeometry>
        </mxCell>
        <mxCell id="I8XLSuPqneHavk6bBn1r-6" value="&lt;p style=&quot;line-height: 0&quot;&gt;&lt;font style=&quot;font-size: 9px&quot;&gt;termoThunk.getPicksGR&lt;/font&gt;&lt;/p&gt;&lt;p style=&quot;line-height: 0&quot;&gt;&lt;font style=&quot;font-size: 9px&quot;&gt;termoAction.setPicksListGR&lt;/font&gt;&lt;/p&gt;" style="edgeLabel;html=1;align=center;verticalAlign=middle;resizable=0;points=[];" vertex="1" connectable="0" parent="I8XLSuPqneHavk6bBn1r-5">
          <mxGeometry x="-0.2336" y="1" relative="1" as="geometry">
            <mxPoint as="offset" />
          </mxGeometry>
        </mxCell>
        <mxCell id="I8XLSuPqneHavk6bBn1r-7" value="State&lt;br&gt;&amp;nbsp;&lt;br&gt;pickListGR: [160-items]&lt;br&gt;pickListR: [16-Items]&lt;br&gt;prevFarmId : [6]" style="rounded=0;whiteSpace=wrap;html=1;" vertex="1" parent="1">
          <mxGeometry x="590" y="110" width="130" height="110" as="geometry" />
        </mxCell>
        <mxCell id="I8XLSuPqneHavk6bBn1r-8" value="" style="shape=flexArrow;endArrow=classic;html=1;rounded=0;fontSize=9;startSize=15;endSize=8;targetPerimeterSpacing=4;strokeWidth=1;exitX=0;exitY=1;exitDx=0;exitDy=0;entryX=0.5;entryY=0;entryDx=0;entryDy=0;" edge="1" parent="1" source="I8XLSuPqneHavk6bBn1r-7" target="I8XLSuPqneHavk6bBn1r-9">
          <mxGeometry width="50" height="50" relative="1" as="geometry">
            <mxPoint x="640" y="310" as="sourcePoint" />
            <mxPoint x="655" y="320" as="targetPoint" />
            <Array as="points" />
          </mxGeometry>
        </mxCell>
        <mxCell id="I8XLSuPqneHavk6bBn1r-9" value="State&lt;br&gt;&amp;nbsp;&lt;br&gt;pickListGR: [160-items]&lt;br&gt;pickListR: [16-Items]&lt;br&gt;prevFarmId : [6]" style="rounded=0;whiteSpace=wrap;html=1;" vertex="1" parent="1">
          <mxGeometry x="470" y="320" width="130" height="110" as="geometry" />
        </mxCell>
        <mxCell id="I8XLSuPqneHavk6bBn1r-10" value="State&lt;br&gt;&amp;nbsp;&lt;br&gt;pickListGR: [160-items]&lt;br&gt;pickListR: [32-Items]&lt;br&gt;prevFarmId : [6, 7]" style="rounded=0;whiteSpace=wrap;html=1;" vertex="1" parent="1">
          <mxGeometry x="680" y="320" width="130" height="110" as="geometry" />
        </mxCell>
        <mxCell id="I8XLSuPqneHavk6bBn1r-11" value="" style="shape=flexArrow;endArrow=classic;html=1;rounded=0;fontSize=9;startSize=15;endSize=8;targetPerimeterSpacing=4;strokeWidth=1;exitX=1;exitY=1;exitDx=0;exitDy=0;entryX=0.5;entryY=0;entryDx=0;entryDy=0;" edge="1" parent="1" source="I8XLSuPqneHavk6bBn1r-7" target="I8XLSuPqneHavk6bBn1r-10">
          <mxGeometry width="50" height="50" relative="1" as="geometry">
            <mxPoint x="705" y="220" as="sourcePoint" />
            <mxPoint x="650" y="320" as="targetPoint" />
            <Array as="points" />
          </mxGeometry>
        </mxCell>
        <mxCell id="I8XLSuPqneHavk6bBn1r-12" value="farmId = 6&amp;nbsp;&lt;br&gt;prevFarmId = farmId" style="text;html=1;strokeColor=none;fillColor=none;align=center;verticalAlign=middle;whiteSpace=wrap;rounded=0;fontSize=9;" vertex="1" parent="1">
          <mxGeometry x="460" y="240" width="90" height="30" as="geometry" />
        </mxCell>
        <mxCell id="I8XLSuPqneHavk6bBn1r-13" value="farmId = 7&amp;nbsp;&lt;br&gt;prevFarmId != farmId&lt;br&gt;termoThunk.setPicksR" style="text;html=1;strokeColor=none;fillColor=none;align=center;verticalAlign=middle;whiteSpace=wrap;rounded=0;fontSize=9;" vertex="1" parent="1">
          <mxGeometry x="740" y="220" width="100" height="50" as="geometry" />
        </mxCell>
        <mxCell id="I8XLSuPqneHavk6bBn1r-14" value="ten sam test i dla&lt;br&gt;termoThunk.setPicsGR&amp;nbsp;" style="text;html=1;strokeColor=none;fillColor=none;align=center;verticalAlign=middle;whiteSpace=wrap;rounded=0;fontSize=9;" vertex="1" parent="1">
          <mxGeometry x="610" y="260" width="100" height="30" as="geometry" />
        </mxCell>
      </root>
    </mxGraphModel>
  </diagram>
</mxfile>
